<svg xmlns="http://www.w3.org/2000/svg" viewBox="0 0 620 144" role="img" aria-labelledby="title desc">
  <title id="title">Quartermaster logo lockup</title>
  <desc id="desc">Quartermaster Q ledger mark with wordmark and tagline.</desc>
  <g aria-hidden="true">
    <path
      fill="#173326"
      fill-rule="evenodd"
      d="M22 18h78c8.837 0 16 7.163 16 16v62c0 8.837-7.163 16-16 16H22c-8.837 0-16-7.163-16-16V34c0-8.837 7.163-16 16-16Zm13 25a9 9 0 0 0-9 9v25a9 9 0 0 0 9 9h52a9 9 0 0 0 9-9V52a9 9 0 0 0-9-9H35Z"
    />
    <path d="M77 96l31 31" fill="none" stroke="#173326" stroke-linecap="round" stroke-width="19" />
    <rect x="39" y="61" width="44" height="7" rx="3.5" fill="#3F7658" />
  </g>
  <text
    x="150"
    y="68"
    fill="#173326"
    font-family="Inter, ui-sans-serif, system-ui, -apple-system, BlinkMacSystemFont, 'Segoe UI', sans-serif"
    font-size="44"
    font-weight="800"
    letter-spacing="0"
  >Quartermaster</text>
  <text
    x="152"
    y="104"
    fill="#66716B"
    font-family="Inter, ui-sans-serif, system-ui, -apple-system, BlinkMacSystemFont, 'Segoe UI', sans-serif"
    font-size="18"
    font-weight="650"
    letter-spacing="0"
  >Kitchen inventory, kept in order.</text>
</svg>
