<svg xmlns="http://www.w3.org/2000/svg" viewBox="0 0 128 128" role="img" aria-labelledby="title desc">
  <title id="title">Quartermaster mark</title>
  <desc id="desc">A geometric Q built from a rounded storage bay with a ledger tick.</desc>
  <path
    fill="#173326"
    fill-rule="evenodd"
    d="M28 14h72c7.732 0 14 6.268 14 14v60c0 7.732-6.268 14-14 14H28c-7.732 0-14-6.268-14-14V28c0-7.732 6.268-14 14-14Zm12 24a8 8 0 0 0-8 8v24a8 8 0 0 0 8 8h48a8 8 0 0 0 8-8V46a8 8 0 0 0-8-8H40Z"
  />
  <path d="M79 88l30 30" fill="none" stroke="#173326" stroke-linecap="round" stroke-width="18" />
  <rect x="44" y="55" width="40" height="6" rx="3" fill="#3F7658" />
</svg>
